# xmcd
#
# Track frame offsets: 
#        150
#        16885
#        30785
#        46537
#        64600
#        82140
#        98197
#        113902
#        131930
#        149195
#        166320
#        184672
#        202387
#        232327
#        251380
#        274857
#        292627
#        314997
#        331562
#
# Disc length: 4661 seconds
#
# Revision: 2
# Processed by: cddbd v1.5.2PL0 Copyright (c) Steve Scherf et al.
# Submitted via: ExactAudioCopy v1.0b3
#
DISCID=17123313
DTITLE=Kool and The Gang - The Best Of Kool and The Gang Superstar Collect
DTITLE=ion
DYEAR=2001
DGENRE=Soul
TTITLE0=Celebration
TTITLE1=Jungle Boogie
TTITLE2=Ladies Night
TTITLE3=Joanna
TTITLE4=Tonight
TTITLE5=Get Down On It
TTITLE6=Hollywood Swinging
TTITLE7=Cherish
TTITLE8=Fresh
TTITLE9=Too Hot
TTITLE10=Take My Heart (You Can Have It If You Want It)
TTITLE11=Big Fun
TTITLE12=Let's Go Dancing (Ooh, LA, LA, La)
TTITLE13=Jones Vs Jones
TTITLE14=Emergency
TTITLE15=Stone Love
TTITLE16=Good Time Tonight
TTITLE17=Take It To The Top
TTITLE18=Hi De Hi, Hi De Ho
EXTD=
EXTT0=
EXTT1=
EXTT2=
EXTT3=
EXTT4=
EXTT5=
EXTT6=
EXTT7=
EXTT8=
EXTT9=
EXTT10=
EXTT11=
EXTT12=
EXTT13=
EXTT14=
EXTT15=
EXTT16=
EXTT17=
EXTT18=
PLAYORDER=
